<svg data-v-423bf9ae="" xmlns="http://www.w3.org/2000/svg" viewBox="0 0 214.3662005631783 60" class="font"><!----><!----><!----><g data-v-423bf9ae="" id="804e4302-a670-4dbc-ae01-f0cdf6c33ac5" fill="black" transform="matrix(5.633803018697211,0,0,5.633803018697211,-5.070421128611883,-22.70422687053152)"><path d="M7.12 11.36L7.12 11.36L8.31 11.54L8.31 11.54Q8.28 12.20 8.20 12.66L8.20 12.66L8.20 12.66Q8.11 13.12 7.95 13.48L7.95 13.48L7.95 13.48Q7.79 13.84 7.56 14.06L7.56 14.06L7.56 14.06Q7.33 14.29 6.96 14.43L6.96 14.43L6.96 14.43Q6.60 14.57 6.14 14.63L6.14 14.63L6.14 14.63Q5.69 14.68 5.04 14.68L5.04 14.68L5.04 14.68Q4.43 14.68 3.94 14.65L3.94 14.65L3.94 14.65Q3.46 14.62 3.06 14.52L3.06 14.52L3.06 14.52Q2.66 14.41 2.36 14.31L2.36 14.31L2.36 14.31Q2.06 14.21 1.84 13.98L1.84 13.98L1.84 13.98Q1.61 13.75 1.45 13.56L1.45 13.56L1.45 13.56Q1.30 13.38 1.19 13.00L1.19 13.00L1.19 13.00Q1.09 12.62 1.03 12.33L1.03 12.33L1.03 12.33Q0.98 12.04 0.95 11.50L0.95 11.50L0.95 11.50Q0.92 10.95 0.91 10.54L0.91 10.54L0.91 10.54Q0.90 10.13 0.90 9.41L0.90 9.41L0.90 9.41Q0.90 8.64 0.91 8.18L0.91 8.18L0.91 8.18Q0.92 7.71 0.95 7.16L0.95 7.16L0.95 7.16Q0.98 6.62 1.04 6.32L1.04 6.32L1.04 6.32Q1.09 6.02 1.20 5.66L1.20 5.66L1.20 5.66Q1.31 5.30 1.46 5.12L1.46 5.12L1.46 5.12Q1.60 4.95 1.83 4.74L1.83 4.74L1.83 4.74Q2.06 4.54 2.34 4.46L2.34 4.46L2.34 4.46Q2.62 4.38 3.01 4.30L3.01 4.30L3.01 4.30Q3.41 4.22 3.87 4.20L3.87 4.20L3.87 4.20Q4.32 4.18 4.92 4.18L4.92 4.18L4.92 4.18Q5.54 4.18 5.98 4.22L5.98 4.22L5.98 4.22Q6.42 4.27 6.80 4.39L6.80 4.39L6.80 4.39Q7.18 4.52 7.43 4.73L7.43 4.73L7.43 4.73Q7.68 4.94 7.86 5.27L7.86 5.27L7.86 5.27Q8.05 5.61 8.16 6.06L8.16 6.06L8.16 6.06Q8.26 6.51 8.31 7.15L8.31 7.15L7.11 7.38L7.11 7.38Q7.08 7.03 7.05 6.80L7.05 6.80L7.05 6.80Q7.02 6.57 6.97 6.34L6.97 6.34L6.97 6.34Q6.92 6.12 6.89 5.98L6.89 5.98L6.89 5.98Q6.86 5.84 6.76 5.70L6.76 5.70L6.76 5.70Q6.67 5.57 6.61 5.50L6.61 5.50L6.61 5.50Q6.55 5.43 6.39 5.37L6.39 5.37L6.39 5.37Q6.23 5.31 6.13 5.29L6.13 5.29L6.13 5.29Q6.02 5.26 5.78 5.24L5.78 5.24L5.78 5.24Q5.54 5.22 5.36 5.22L5.36 5.22L5.36 5.22Q5.18 5.22 4.84 5.22L4.84 5.22L4.84 5.22Q4.36 5.22 4.06 5.23L4.06 5.23L4.06 5.23Q3.75 5.24 3.45 5.28L3.45 5.28L3.45 5.28Q3.14 5.32 2.97 5.39L2.97 5.39L2.97 5.39Q2.80 5.46 2.65 5.58L2.65 5.58L2.65 5.58Q2.50 5.70 2.43 5.88L2.43 5.88L2.43 5.88Q2.37 6.05 2.35 6.30L2.35 6.30L2.35 6.30Q2.29 8.10 2.29 9.98L2.29 9.98L2.29 9.98Q2.29 11.29 2.35 12.54L2.35 12.54L2.35 12.54Q2.39 12.93 2.57 13.15L2.57 13.15L2.57 13.15Q2.76 13.37 3.31 13.50L3.31 13.50L3.31 13.50Q3.85 13.63 4.85 13.63L4.85 13.63L4.85 13.63Q5.38 13.63 5.74 13.60L5.74 13.60L5.74 13.60Q6.10 13.57 6.35 13.46L6.35 13.46L6.35 13.46Q6.60 13.34 6.73 13.25L6.73 13.25L6.73 13.25Q6.86 13.16 6.94 12.89L6.94 12.89L6.94 12.89Q7.01 12.63 7.04 12.44L7.04 12.44L7.04 12.44Q7.06 12.26 7.09 11.83L7.09 11.83L7.09 11.83Q7.10 11.73 7.10 11.68L7.10 11.68L7.10 11.68Q7.10 11.62 7.11 11.53L7.11 11.53L7.11 11.53Q7.12 11.44 7.12 11.36ZM13.06 13.68L13.06 13.68L13.06 13.68Q14.03 13.66 14.41 13.54L14.41 13.54L14.41 13.54Q14.79 13.41 14.79 13.05L14.79 13.05L14.79 13.05Q14.86 12.07 14.86 10.79L14.86 10.79L14.86 10.79Q14.86 10.36 14.83 9.57L14.83 9.57L14.83 9.57Q14.79 8.78 14.79 8.40L14.79 8.40L14.79 8.40Q14.79 8.29 14.76 8.19L14.76 8.19L14.76 8.19Q14.72 8.09 14.63 8.03L14.63 8.03L14.63 8.03Q14.55 7.96 14.46 7.92L14.46 7.92L14.46 7.92Q14.38 7.87 14.22 7.84L14.22 7.84L14.22 7.84Q14.07 7.81 13.96 7.79L13.96 7.79L13.96 7.79Q13.86 7.77 13.66 7.77L13.66 7.77L13.66 7.77Q13.47 7.76 13.36 7.76L13.36 7.76L13.36 7.76Q13.25 7.76 13.05 7.76L13.05 7.76L13.05 7.76Q12.84 7.76 12.74 7.76L12.74 7.76L12.74 7.76Q12.63 7.76 12.44 7.77L12.44 7.77L12.44 7.77Q12.24 7.77 12.14 7.79L12.14 7.79L12.14 7.79Q12.03 7.81 11.88 7.84L11.88 7.84L11.88 7.84Q11.72 7.87 11.64 7.92L11.64 7.92L11.64 7.92Q11.55 7.96 11.47 8.03L11.47 8.03L11.47 8.03Q11.38 8.09 11.34 8.19L11.34 8.19L11.34 8.19Q11.31 8.29 11.31 8.40L11.31 8.40L11.31 8.40Q11.31 8.78 11.27 9.57L11.27 9.57L11.27 9.57Q11.24 10.36 11.24 10.79L11.24 10.79L11.24 10.79Q11.24 12.07 11.31 13.05L11.31 13.05L11.31 13.05Q11.31 13.41 11.71 13.55L11.71 13.55L11.71 13.55Q12.11 13.68 13.06 13.68ZM13.04 14.62L13.04 14.62L13.04 14.62Q12.28 14.62 11.78 14.56L11.78 14.56L11.78 14.56Q11.27 14.50 10.91 14.29L10.91 14.29L10.91 14.29Q10.54 14.08 10.35 13.85L10.35 13.85L10.35 13.85Q10.16 13.61 10.05 13.10L10.05 13.10L10.05 13.10Q9.94 12.59 9.92 12.09L9.92 12.09L9.92 12.09Q9.89 11.59 9.89 10.71L9.89 10.71L9.89 10.71Q9.89 10.04 9.91 9.60L9.91 9.60L9.91 9.60Q9.93 9.15 9.99 8.73L9.99 8.73L9.99 8.73Q10.05 8.30 10.14 8.04L10.14 8.04L10.14 8.04Q10.23 7.77 10.41 7.54L10.41 7.54L10.41 7.54Q10.58 7.30 10.80 7.18L10.80 7.18L10.80 7.18Q11.02 7.05 11.36 6.96L11.36 6.96L11.36 6.96Q11.70 6.87 12.10 6.84L12.10 6.84L12.10 6.84Q12.50 6.81 13.05 6.81L13.05 6.81L13.05 6.81Q13.60 6.81 14.00 6.84L14.00 6.84L14.00 6.84Q14.40 6.87 14.74 6.96L14.74 6.96L14.74 6.96Q15.08 7.05 15.30 7.18L15.30 7.18L15.30 7.18Q15.52 7.30 15.69 7.54L15.69 7.54L15.69 7.54Q15.87 7.77 15.96 8.04L15.96 8.04L15.96 8.04Q16.05 8.30 16.11 8.73L16.11 8.73L16.11 8.73Q16.17 9.15 16.19 9.60L16.19 9.60L16.19 9.60Q16.21 10.04 16.21 10.71L16.21 10.71L16.21 10.71Q16.21 11.59 16.18 12.09L16.18 12.09L16.18 12.09Q16.16 12.59 16.05 13.10L16.05 13.10L16.05 13.10Q15.94 13.61 15.75 13.85L15.75 13.85L15.75 13.85Q15.55 14.09 15.19 14.29L15.19 14.29L15.19 14.29Q14.82 14.50 14.31 14.56L14.31 14.56L14.31 14.56Q13.81 14.62 13.04 14.62ZM19.51 4.25L19.51 14.52L18.16 14.52L18.16 4.36L19.51 4.25ZM23.05 4.25L23.05 14.52L21.70 14.52L21.70 4.36L23.05 4.25ZM30.70 9.56L30.70 14.52L29.63 14.52L29.42 13.45L29.42 13.45Q29.21 14.15 28.67 14.39L28.67 14.39L28.67 14.39Q28.14 14.62 27.10 14.62L27.10 14.62L27.10 14.62Q26.42 14.62 25.98 14.49L25.98 14.49L25.98 14.49Q25.55 14.36 25.29 14.04L25.29 14.04L25.29 14.04Q25.03 13.73 24.93 13.27L24.93 13.27L24.93 13.27Q24.83 12.82 24.83 12.10L24.83 12.10L24.83 12.10Q24.83 11.78 24.94 11.53L24.94 11.53L24.94 11.53Q25.05 11.27 25.25 11.09L25.25 11.09L25.25 11.09Q25.44 10.92 25.77 10.79L25.77 10.79L25.77 10.79Q26.09 10.66 26.44 10.58L26.44 10.58L26.44 10.58Q26.79 10.51 27.29 10.46L27.29 10.46L27.29 10.46Q27.78 10.42 28.25 10.40L28.25 10.40L28.25 10.40Q28.72 10.39 29.35 10.39L29.35 10.39L29.35 8.36L29.35 8.36Q29.35 8.01 29.03 7.88L29.03 7.88L29.03 7.88Q28.70 7.75 27.86 7.75L27.86 7.75L27.86 7.75Q27.27 7.75 26.97 7.77L26.97 7.77L26.97 7.77Q26.68 7.80 26.53 7.93L26.53 7.93L26.53 7.93Q26.37 8.07 26.35 8.20L26.35 8.20L26.35 8.20Q26.33 8.33 26.32 8.68L26.32 8.68L26.32 8.68Q26.31 8.81 26.31 8.89L26.31 8.89L25.27 8.85L25.27 8.85Q25.25 8.74 25.25 8.52L25.25 8.52L25.25 8.52Q25.25 8.07 25.39 7.75L25.39 7.75L25.39 7.75Q25.52 7.43 25.73 7.25L25.73 7.25L25.73 7.25Q25.94 7.07 26.31 6.97L26.31 6.97L26.31 6.97Q26.68 6.86 27.04 6.84L27.04 6.84L27.04 6.84Q27.41 6.81 27.95 6.81L27.95 6.81L27.95 6.81Q28.77 6.81 29.28 6.94L29.28 6.94L29.28 6.94Q29.79 7.06 30.12 7.39L30.12 7.39L30.12 7.39Q30.45 7.72 30.57 8.23L30.57 8.23L30.57 8.23Q30.70 8.74 30.70 9.56L30.70 9.56ZM29.35 12.37L29.35 12.37L29.35 11.20L29.35 11.20Q28.01 11.20 27.28 11.31L27.28 11.31L27.28 11.31Q26.56 11.41 26.31 11.59L26.31 11.59L26.31 11.59Q26.07 11.77 26.07 12.10L26.07 12.10L26.07 12.10Q26.07 12.11 26.07 12.14L26.07 12.14L26.07 12.14Q26.07 13.18 26.24 13.43L26.24 13.43L26.24 13.43Q26.41 13.69 27.29 13.69L27.29 13.69L27.29 13.69Q28.03 13.69 28.50 13.51L28.50 13.51L28.50 13.51Q28.96 13.33 29.15 13.05L29.15 13.05L29.15 13.05Q29.33 12.78 29.35 12.37ZM38.95 10.34L38.95 10.34L38.95 10.34Q38.95 10.86 38.94 11.20L38.94 11.20L38.94 11.20Q38.94 11.55 38.92 11.95L38.92 11.95L38.92 11.95Q38.90 12.35 38.86 12.61L38.86 12.61L38.86 12.61Q38.81 12.87 38.75 13.16L38.75 13.16L38.75 13.16Q38.68 13.45 38.58 13.62L38.58 13.62L38.58 13.62Q38.47 13.80 38.33 13.99L38.33 13.99L38.33 13.99Q38.19 14.17 37.99 14.27L37.99 14.27L37.99 14.27Q37.80 14.38 37.56 14.46L37.56 14.46L37.56 14.46Q37.31 14.55 37.00 14.59L37.00 14.59L37.00 14.59Q36.70 14.62 36.32 14.62L36.32 14.62L36.32 14.62Q34.53 14.62 34.14 13.58L34.14 13.58L34.02 14.52L32.79 14.52L32.79 4.14L34.13 4.03L34.13 7.85L34.13 7.85Q34.36 7.31 34.86 7.06L34.86 7.06L34.86 7.06Q35.36 6.81 36.21 6.81L36.21 6.81L36.21 6.81Q36.67 6.81 37.05 6.87L37.05 6.87L37.05 6.87Q37.42 6.92 37.70 7.05L37.70 7.05L37.70 7.05Q37.97 7.18 38.18 7.35L38.18 7.35L38.18 7.35Q38.38 7.51 38.52 7.76L38.52 7.76L38.52 7.76Q38.66 8.00 38.74 8.26L38.74 8.26L38.74 8.26Q38.83 8.51 38.88 8.87L38.88 8.87L38.88 8.87Q38.92 9.23 38.94 9.56L38.94 9.56L38.94 9.56Q38.95 9.88 38.95 10.34ZM37.61 12.13L37.60 9.32L37.60 9.32Q37.60 9.02 37.60 8.88L37.60 8.88L37.60 8.88Q37.60 8.73 37.57 8.53L37.57 8.53L37.57 8.53Q37.55 8.33 37.51 8.25L37.51 8.25L37.51 8.25Q37.47 8.17 37.38 8.06L37.38 8.06L37.38 8.06Q37.30 7.94 37.18 7.90L37.18 7.90L37.18 7.90Q37.06 7.86 36.87 7.82L36.87 7.82L36.87 7.82Q36.68 7.77 36.45 7.76L36.45 7.76L36.45 7.76Q36.22 7.75 35.89 7.75L35.89 7.75L35.89 7.75Q35.20 7.75 34.81 7.85L34.81 7.85L34.81 7.85Q34.43 7.95 34.25 8.18L34.25 8.18L34.25 8.18Q34.13 8.42 34.13 9.24L34.13 9.24L34.13 12.68L34.13 12.68Q34.13 13.24 34.53 13.46L34.53 13.46L34.53 13.46Q34.92 13.69 35.90 13.69L35.90 13.69L35.90 13.69Q36.86 13.69 37.22 13.51L37.22 13.51L37.22 13.51Q37.61 13.38 37.61 12.13L37.61 12.13Z"></path></g><!----><!----></svg>